<svg xmlns="http://www.w3.org/2000/svg" width="29" height="29" fill="none" viewBox="0 0 29 29"><rect width="5" height="5" x="3" fill="#fff" rx="2.5"/><rect width="5" height="5" x="21" fill="#fff" rx="2.5"/><rect width="5" height="5" x="3" y="6" fill="#fff" rx="2.5"/><rect width="5" height="5" x="21" y="6" fill="#fff" rx="2.5"/><rect width="5" height="5" x="3" y="12" fill="#fff" rx="2.5"/><rect width="5" height="5" x="21" y="12" fill="#fff" rx="2.5"/><rect width="5" height="5" x="9" y="12" fill="#fff" rx="2.5"/><rect width="5" height="5" x="9" fill="#fff" rx="2.5"/><rect width="5" height="5" x="15" y="12" fill="#fff" rx="2.5"/><rect width="5" height="5" x="15" fill="#fff" rx="2.5"/><rect width="5" height="5" x="3" y="18" fill="#fff" rx="2.5"/><rect width="5" height="5" x="21" y="18" fill="#fff" rx="2.5"/><rect width="5" height="5" x="3" y="24" fill="#fff" rx="2.5"/><rect width="5" height="5" x="21" y="24" fill="#fff" rx="2.5"/></svg>