<svg xmlns="http://www.w3.org/2000/svg" width="29" height="29" fill="none" viewBox="0 0 29 29"><rect width="5" height="5" x="29" y="29" fill="#fff" rx="2.5" transform="rotate(180 29 29)"/><rect width="5" height="5" x="5" y="29" fill="#fff" rx="2.5" transform="rotate(180 5 29)"/><rect width="5" height="5" x="29" y="23" fill="#fff" rx="2.5" transform="rotate(180 29 23)"/><rect width="5" height="5" x="5" y="23" fill="#fff" rx="2.5" transform="rotate(180 5 23)"/><rect width="5" height="5" x="29" y="17" fill="#fff" rx="2.5" transform="rotate(180 29 17)"/><rect width="5" height="5" x="5" y="17" fill="#fff" rx="2.5" transform="rotate(180 5 17)"/><rect width="5" height="5" x="23" y="23" fill="#fff" rx="2.5" transform="rotate(180 23 23)"/><rect width="5" height="5" x="11" y="23" fill="#fff" rx="2.5" transform="rotate(180 11 23)"/><rect width="5" height="5" x="17" y="17" fill="#fff" rx="2.5" transform="rotate(180 17 17)"/><rect width="5" height="5" x="29" y="11" fill="#fff" rx="2.5" transform="rotate(180 29 11)"/><rect width="5" height="5" x="5" y="11" fill="#fff" rx="2.5" transform="rotate(180 5 11)"/><rect width="5" height="5" x="29" y="5" fill="#fff" rx="2.5" transform="rotate(180 29 5)"/><rect width="5" height="5" x="5" y="5" fill="#fff" rx="2.5" transform="rotate(180 5 5)"/></svg>